<?xml version="1.0"?>
<svg version="1.1" xmlns="http://www.w3.org/2000/svg" width="150px" height="90px" style="border: dashed 2px #aaa"><path fill="#fc6d00" d="M11.47705078125,71.88232421875q0-0.1611328125,0.107421875-1.141357421875t0.281982421875-2.39013671875t0.389404296875-3.03466796875t0.3759765625-3.074951171875t0.281982421875-2.55126953125t0.120849609375-1.47705078125q-0.21484375-0.107421875-0.523681640625-0.308837890625t-0.308837890625-0.469970703125q0-0.3759765625,0.362548828125-0.604248046875t0.631103515625-0.335693359375q0.107421875-1.36962890625,0.2685546875-3.8134765625t0.496826171875-5.277099609375t0.93994140625-5.7470703125t1.597900390625-5.29052734375t2.39013671875-3.880615234375t3.4375-1.50390625t3.3837890625,1.2890625t2.188720703125,3.35693359375t1.2890625,4.59228515625t0.67138671875,5.02197265625t0.281982421875,4.6728515625t0.107421875,3.4912109375q0.0537109375,0.83251953125,0.40283203125,1.114501953125t0.765380859375,0.389404296875t0.751953125,0.24169921875t0.335693359375,0.67138671875q0,0.61767578125-0.751953125,0.859375t-1.181640625,0.29541015625q0.2685546875,3.35693359375,0.738525390625,6.6064453125t1.248779296875,6.552734375q0.107421875,0.61767578125,0.29541015625,1.248779296875t0.18798828125,1.221923828125q0,0.4296875-0.29541015625,0.711669921875t-0.765380859375,0.443115234375t-0.93994140625,0.21484375t-0.792236328125,0.0537109375q-1.20849609375,0-2.041015625-0.45654296875t-1.10107421875-1.74560546875q-0.72509765625-3.46435546875-1.42333984375-7.27783203125q-0.5908203125-3.30322265625-0.5908203125-6.41845703125q0-0.4833984375,0.02685546875-0.966796875q-2.255859375,0-4.53857421875,0.107421875t-4.37744140625,0.8056640625q-0.0537109375,0.72509765625-0.2685546875,2.7392578125t-0.4833984375,4.32373046875t-0.550537109375,4.417724609375t-0.335693359375,2.994384765625q-0.0537109375,0.3759765625-0.550537109375,0.711669921875t-1.07421875,0.362548828125t-1.0205078125-0.362548828125t-0.443115234375-1.383056640625z M16.4990234375,55.60791015625q2.0947265625-0.4833984375,4.202880859375-0.56396484375t4.256591796875-0.18798828125q-0.107421875-0.67138671875-0.0537109375-1.383056640625t0.0537109375-1.436767578125q0-1.58447265625-0.08056640625-3.67919921875t-0.24169921875-4.2431640625t-0.416259765625-4.229736328125t-0.577392578125-3.7060546875t-0.684814453125-2.591552734375t-0.792236328125-0.966796875q-0.83251953125,0.0537109375-1.571044921875,1.436767578125t-1.3427734375,3.51806640625t-1.10107421875,4.7802734375t-0.83251953125,5.169677734375t-0.550537109375,4.69970703125t-0.2685546875,3.3837890625z M38.538500976562,62.16064453125q0-2.0947265625,0.443115234375-3.800048828125t1.409912109375-2.886962890625t2.537841796875-1.839599609375t3.826904296875-0.657958984375q1.26220703125,0,2.578125,0.335693359375t2.255859375,1.248779296875q0-0.537109375,0.107421875-2.215576171875t0.2685546875-3.907470703125t0.335693359375-4.6728515625t0.308837890625-4.53857421875t0.24169921875-3.51806640625t0.1611328125-1.611328125q0.2685546875-0.77880859375,0.99365234375-0.926513671875t1.36962890625-0.147705078125q1.69189453125,0,2.081298828125,0.537109375t0.389404296875,2.1484375q0,5.88134765625-0.523681640625,11.708984375t-0.523681640625,11.708984375q0,3.78662109375,0.147705078125,7.613525390625t1.060791015625,7.532958984375l0.29541015625,0.2685546875l0.1611328125,0.4833984375l-0.40283203125,0.61767578125q-1.0205078125,0.64453125-2.36328125,0.64453125l-0.107421875,0q-1.36962890625,0-2.5244140625-0.64453125q-0.4296875-0.2685546875-0.711669921875-1.597900390625t-0.443115234375-2.92724609375t-0.24169921875-3.074951171875t-0.13427734375-2.0947265625q-0.93994140625,2.1484375-2.564697265625,3.692626953125t-4.095458984375,1.544189453125q-1.93359375,0-3.1689453125-0.83251953125t-1.920166015625-2.12158203125t-0.966796875-2.886962890625t-0.281982421875-3.182373046875z M41.788012695312,62.32177734375q0,0.61767578125,0.147705078125,1.826171875t0.469970703125,2.4169921875t0.899658203125,2.1484375t1.517333984375,0.93994140625q1.26220703125-0.61767578125,2.28271484375-2.054443359375t1.759033203125-3.1689453125t1.15478515625-3.46435546875t0.416259765625-2.994384765625q0-1.58447265625-1.15478515625-2.6318359375t-2.76611328125-1.04736328125q-0.4833984375,0-0.980224609375,0.18798828125t-0.926513671875,0.4296875q-0.99365234375,0.93994140625-1.544189453125,1.705322265625t-0.83251953125,1.58447265625t-0.362548828125,1.812744140625t-0.08056640625,2.3095703125z M63.961767578125,61.83837890625q0-2.470703125,0.577392578125-4.847412109375t0.980224609375-4.739990234375q0.107421875-0.61767578125,0.845947265625-0.765380859375t1.248779296875-0.147705078125q0.88623046875,0,1.42333984375,0.2685546875q0.21484375,0.107421875,0.40283203125,0.24169921875t0.18798828125,0.34912109375q0,2.3095703125-0.550537109375,4.51171875t-0.550537109375,4.6728515625q0,0.83251953125,0.120849609375,1.571044921875t0.228271484375,1.463623046875l0.1611328125,0.77880859375q0,0.21484375,0.02685546875,0.3759765625t0.08056640625,0.3759765625q0,0.4833984375-0.684814453125,0.657958984375t-1.195068359375,0.174560546875q-0.77880859375,0-1.436767578125-0.308837890625t-1.033935546875-1.060791015625l-0.3759765625-0.77880859375q-0.322265625-0.61767578125-0.322265625-1.383056640625t-0.13427734375-1.409912109375z M65.680517578125,45.67138671875l0-0.51025390625q0-1.26220703125,0.631103515625-2.255859375t1.893310546875-0.99365234375q0.1611328125,0,0.308837890625,0.02685546875t0.308837890625,0.02685546875q0.322265625,0.0537109375,0.845947265625,0.255126953125t0.523681640625,0.631103515625l0,0.0537109375q-0.107421875,0.21484375-0.13427734375,0.443115234375t-0.13427734375,0.389404296875l0.0537109375-0.0537109375q-0.322265625,0.83251953125-0.523681640625,1.3427734375t-0.443115234375,0.819091796875t-0.604248046875,0.443115234375t-1.033935546875,0.13427734375q-0.107421875,0-0.3759765625-0.02685546875t-0.577392578125-0.107421875t-0.523681640625-0.21484375t-0.21484375-0.40283203125z M74.587670898437,45.4296875q0-0.3759765625,0.8056640625-0.64453125t1.826171875-0.443115234375t1.973876953125-0.255126953125t1.302490234375-0.13427734375q0-0.72509765625,0.0537109375-1.463623046875t0.29541015625-1.31591796875t0.765380859375-0.926513671875t1.463623046875-0.34912109375q0.77880859375,0,1.181640625,0.18798828125t0.859375,0.77880859375q0.107421875,0.322265625,0.107421875,0.61767578125l0,0.899658203125t-0.0537109375,0.926513671875q0.99365234375-0.107421875,1.973876953125-0.255126953125t1.973876953125-0.147705078125q0.72509765625,0,0.99365234375,0.02685546875t0.537109375,0.64453125q0.21484375,0.61767578125-0.523681640625,0.93994140625t-1.7724609375,0.4833984375t-2.054443359375,0.24169921875t-1.2353515625,0.08056640625q-0.322265625,4.619140625-0.657958984375,9.15771484375t-0.335693359375,9.21142578125q0,2.0947265625,0.13427734375,4.32373046875t0.751953125,4.21630859375q0.1611328125,0.61767578125,0.537109375,1.15478515625t0.3759765625,1.15478515625q0,0.3759765625-0.29541015625,0.5908203125t-0.711669921875,0.362548828125t-0.83251953125,0.174560546875t-0.684814453125,0.02685546875q-1.69189453125,0-2.578125-1.26220703125t-1.275634765625-3.021240234375t-0.416259765625-3.612060546875t-0.02685546875-3.0078125q0-2.36328125,0.093994140625-4.833984375t0.228271484375-4.8876953125t0.3759765625-4.7265625t0.56396484375-4.296875q-0.93994140625,0.107421875-1.839599609375,0.24169921875t-1.839599609375,0.13427734375q-0.21484375,0-0.577392578125-0.02685546875t-0.684814453125-0.13427734375t-0.550537109375-0.29541015625t-0.228271484375-0.537109375z M95.1232421875,56.494140625q0-0.77880859375,0.443115234375-1.0205078125t1.114501953125-0.24169921875q1.10107421875,0,1.678466796875,0.416259765625t0.577392578125,1.463623046875q0,1.26220703125,0.18798828125,3.155517578125t0.550537109375,3.67919921875t0.859375,3.074951171875t1.033935546875,1.2890625q0.99365234375,0,1.759033203125-1.53076171875t1.3427734375-3.759765625t0.99365234375-4.793701171875t0.577392578125-4.578857421875q0.107421875-1.10107421875,0.523681640625-1.597900390625t1.517333984375-0.496826171875q1.26220703125,0,1.839599609375,1.04736328125t0.738525390625,2.578125q0.13427734375,1.31591796875,0.13427734375,2.7392578125l0,0.45654296875l0,1.07421875q0,1.0205078125,0.02685546875,1.826171875l0.77880859375,16.46240234375l0.107421875,2.7392578125q0.0537109375,0.3759765625,0.08056640625,0.711669921875t0.02685546875,0.711669921875q0,1.53076171875-0.657958984375,1.973876953125t-2.135009765625,0.443115234375q-0.322265625,0-0.819091796875-0.0537109375t-0.966796875-0.21484375t-0.8056640625-0.443115234375t-0.335693359375-0.711669921875l0.107421875-0.2685546875q0.13427734375-1.611328125,0.13427734375-3.3837890625l0-0.56396484375q-0.02685546875-2.0947265625-0.13427734375-4.2431640625t-0.24169921875-4.296875t-0.13427734375-4.1357421875q-0.3759765625,0.83251953125-0.872802734375,1.71875t-1.15478515625,1.597900390625t-1.490478515625,1.181640625t-1.8798828125,0.469970703125q-1.53076171875,0-2.5244140625-0.8056640625t-1.544189453125-2.0947265625t-0.792236328125-2.886962890625t-0.322265625-3.19580078125t-0.107421875-3.048095703125t-0.21484375-2.44384765625z M117.51184082031,62.48291015625q0-1.826171875,0.496826171875-3.51806640625t1.490478515625-3.021240234375t2.484130859375-2.12158203125t3.450927734375-0.792236328125q1.20849609375,0,2.672119140625,0.362548828125t2.752685546875,1.07421875t2.1484375,1.812744140625t0.859375,2.5244140625q0,0.67138671875-0.228271484375,1.0205078125t-0.926513671875,0.34912109375l-0.29541015625-0.0537109375q0.77880859375,2.0947265625,1.3427734375,4.296875t1.10107421875,4.404296875q0.21484375,0.4296875,0.322265625,0.765380859375t0.107421875,0.657958984375q0,0.4296875-0.24169921875,0.711669921875t-0.631103515625,0.416259765625t-0.8056640625,0.18798828125t-0.738525390625,0.0537109375q-1.15478515625,0-1.732177734375-0.40283203125t-0.83251953125-1.10107421875t-0.308837890625-1.571044921875t-0.21484375-1.759033203125q-0.322265625,1.04736328125-0.845947265625,2.041015625t-1.2353515625,1.785888671875t-1.678466796875,1.26220703125t-2.17529296875,0.469970703125q-1.7724609375,0-2.98095703125-1.0205078125t-1.947021484375-2.510986328125t-1.07421875-3.182373046875t-0.335693359375-3.14208984375z M121.32531738281,62.10693359375q0,0.99365234375,0.13427734375,2.0947265625t0.443115234375,2.17529296875t0.792236328125,2.027587890625t1.20849609375,1.678466796875q1.31591796875-1.42333984375,1.947021484375-3.46435546875t1.1279296875-3.934326171875t1.1279296875-3.24951171875t1.947021484375-1.356201171875q0.83251953125,0,1.396484375,0.29541015625q-0.2685546875-0.67138671875-0.88623046875-1.302490234375t-1.383056640625-1.15478515625t-1.58447265625-0.859375t-1.544189453125-0.335693359375q-0.21484375,0-0.496826171875,0.067138671875t-0.443115234375,0.013427734375q-1.10107421875,0.322265625-1.812744140625,1.114501953125t-1.15478515625,1.866455078125t-0.631103515625,2.2021484375t-0.18798828125,2.12158203125z"/><path fill="#" d=""/></svg>
